<svg width="153" height="133" viewBox="0 0 153 133" fill="none" xmlns="http://www.w3.org/2000/svg">
<path d="M24.86 109.912C24.684 109.971 24.4493 110.029 24.156 110.088C23.8627 110.176 23.54 110.22 23.188 110.22C21.8973 110.22 21.252 109.677 21.252 108.592V97.944H7.524V109.912C7.348 109.971 7.11333 110.029 6.82 110.088C6.52667 110.176 6.204 110.22 5.852 110.22C4.56133 110.22 3.916 109.677 3.916 108.592V83.336C4.06267 83.2773 4.28267 83.2187 4.576 83.16C4.89867 83.072 5.236 83.028 5.588 83.028C6.87867 83.028 7.524 83.5707 7.524 84.656V94.952H21.252V83.336C21.3987 83.2773 21.6187 83.2187 21.912 83.16C22.2347 83.072 22.572 83.028 22.924 83.028C24.2147 83.028 24.86 83.5707 24.86 84.656V109.912ZM34.5971 101.904C35.3891 105.747 37.9117 107.668 42.1651 107.668C43.3971 107.668 44.5117 107.463 45.5091 107.052C46.5064 106.641 47.2984 106.201 47.8851 105.732C48.5891 106.143 48.9411 106.7 48.9411 107.404C48.9411 107.815 48.7504 108.211 48.3691 108.592C48.0171 108.973 47.5184 109.311 46.8731 109.604C46.2571 109.897 45.5237 110.132 44.6731 110.308C43.8517 110.484 42.9571 110.572 41.9891 110.572C38.5864 110.572 35.8877 109.648 33.8931 107.8C31.9277 105.952 30.9451 103.253 30.9451 99.704C30.9451 98.032 31.1797 96.5507 31.6491 95.26C32.1477 93.94 32.8224 92.8253 33.6731 91.916C34.5531 91.0067 35.5944 90.3173 36.7971 89.848C37.9997 89.3493 39.3051 89.1 40.7131 89.1C42.0331 89.1 43.2504 89.32 44.3651 89.76C45.4797 90.2 46.4331 90.8307 47.2251 91.652C48.0464 92.444 48.6771 93.3973 49.1171 94.512C49.5864 95.5973 49.8211 96.8 49.8211 98.12C49.8211 98.7653 49.6744 99.2347 49.3811 99.528C49.0877 99.792 48.6771 99.9533 48.1491 100.012L34.5971 101.904ZM40.6691 91.96C38.8797 91.96 37.3984 92.5907 36.2251 93.852C35.0517 95.084 34.4357 96.8587 34.3771 99.176L46.4771 97.504C46.3304 95.8907 45.7584 94.5707 44.7611 93.544C43.7931 92.488 42.4291 91.96 40.6691 91.96ZM58.6455 109.912C58.4988 109.971 58.2788 110.029 57.9855 110.088C57.6921 110.176 57.3695 110.22 57.0175 110.22C55.7561 110.22 55.1255 109.692 55.1255 108.636V89.76C55.2721 89.7013 55.4921 89.6427 55.7855 89.584C56.1081 89.496 56.4455 89.452 56.7975 89.452C58.0295 89.452 58.6455 89.9947 58.6455 91.08V109.912ZM54.5975 83.248C54.5975 82.632 54.8028 82.1187 55.2135 81.708C55.6535 81.268 56.2108 81.048 56.8855 81.048C57.5601 81.048 58.1028 81.268 58.5135 81.708C58.9241 82.1187 59.1295 82.632 59.1295 83.248C59.1295 83.864 58.9241 84.392 58.5135 84.832C58.1028 85.2427 57.5601 85.448 56.8855 85.448C56.2108 85.448 55.6535 85.2427 55.2135 84.832C54.8028 84.392 54.5975 83.864 54.5975 83.248ZM69.4767 109.912C69.33 109.971 69.11 110.029 68.8167 110.088C68.5234 110.176 68.2007 110.22 67.8487 110.22C66.5874 110.22 65.9567 109.692 65.9567 108.636V81.488C66.1034 81.4293 66.3234 81.3707 66.6167 81.312C66.9394 81.224 67.262 81.18 67.5847 81.18C68.846 81.18 69.4767 81.708 69.4767 82.764V109.912ZM78.9408 101.904C79.7328 105.747 82.2555 107.668 86.5088 107.668C87.7408 107.668 88.8555 107.463 89.8528 107.052C90.8501 106.641 91.6421 106.201 92.2288 105.732C92.9328 106.143 93.2848 106.7 93.2848 107.404C93.2848 107.815 93.0941 108.211 92.7128 108.592C92.3608 108.973 91.8621 109.311 91.2168 109.604C90.6008 109.897 89.8675 110.132 89.0168 110.308C88.1955 110.484 87.3008 110.572 86.3328 110.572C82.9301 110.572 80.2315 109.648 78.2368 107.8C76.2715 105.952 75.2888 103.253 75.2888 99.704C75.2888 98.032 75.5235 96.5507 75.9928 95.26C76.4915 93.94 77.1661 92.8253 78.0168 91.916C78.8968 91.0067 79.9381 90.3173 81.1408 89.848C82.3435 89.3493 83.6488 89.1 85.0568 89.1C86.3768 89.1 87.5941 89.32 88.7088 89.76C89.8235 90.2 90.7768 90.8307 91.5688 91.652C92.3901 92.444 93.0208 93.3973 93.4608 94.512C93.9301 95.5973 94.1648 96.8 94.1648 98.12C94.1648 98.7653 94.0181 99.2347 93.7248 99.528C93.4315 99.792 93.0208 99.9533 92.4928 100.012L78.9408 101.904ZM85.0128 91.96C83.2235 91.96 81.7421 92.5907 80.5688 93.852C79.3955 95.084 78.7795 96.8587 78.7208 99.176L90.8208 97.504C90.6741 95.8907 90.1021 94.5707 89.1048 93.544C88.1368 92.488 86.7728 91.96 85.0128 91.96ZM102.769 109.912C102.623 109.971 102.403 110.029 102.109 110.088C101.816 110.176 101.493 110.22 101.141 110.22C99.8799 110.22 99.2492 109.692 99.2492 108.636V93.72C99.2492 93.0453 99.3666 92.5173 99.6012 92.136C99.8652 91.7253 100.291 91.3293 100.877 90.948C101.64 90.4493 102.667 90.024 103.957 89.672C105.277 89.2907 106.759 89.1 108.401 89.1C110.748 89.1 111.921 89.6867 111.921 90.86C111.921 91.1533 111.877 91.432 111.789 91.696C111.701 91.9307 111.584 92.136 111.437 92.312C111.144 92.2533 110.763 92.1947 110.293 92.136C109.824 92.0773 109.355 92.048 108.885 92.048C107.536 92.048 106.348 92.1947 105.321 92.488C104.295 92.752 103.444 93.0747 102.769 93.456V109.912Z" fill="black"/>
<path d="M103.227 24.9678C109.502 40.7693 119.665 69.0125 111.714 75.2865C103.762 81.5605 83.5218 61.9774 75.762 48.0994C68.0021 34.2215 68.1571 17.8851 76.1084 11.6109C84.0598 5.33668 97.5826 10.7565 103.226 24.9678H103.227Z" fill="url(#paint0_linear_112_11411)"/>
<path d="M126.026 30.4917C125.677 49.0693 117.929 76.4196 108.385 76.6381C98.8407 76.8568 90.6231 47.4239 90.3528 30.7663C90.0823 14.1088 97.6001 0.428144 107.144 0.209465C116.689 -0.00921418 126.363 12.5679 126.026 30.4917Z" fill="url(#paint1_linear_112_11411)"/>
<path d="M141.837 49.3418C132.176 61.4197 113.167 81.9932 105.345 75.4936C97.5227 68.994 105.472 39.4568 113.511 25.8047C121.549 12.1526 134.407 6.35429 142.229 12.8537C150.051 19.3532 153.002 35.3833 141.837 49.3416V49.3418Z" fill="url(#paint2_linear_112_11411)"/>
<defs>
<linearGradient id="paint0_linear_112_11411" x1="74.7745" y1="9.84487" x2="118.853" y2="65.883" gradientUnits="userSpaceOnUse">
<stop stop-color="#14EDB9"/>
<stop offset="1" stop-color="#05664F"/>
</linearGradient>
<linearGradient id="paint1_linear_112_11411" x1="109.439" y1="-4.17426" x2="105.945" y2="63.0807" gradientUnits="userSpaceOnUse">
<stop stop-color="#5AFF7A"/>
<stop offset="1" stop-color="#05664F"/>
</linearGradient>
<linearGradient id="paint2_linear_112_11411" x1="145.751" y1="11.9617" x2="98.2188" y2="59.5341" gradientUnits="userSpaceOnUse">
<stop stop-color="#D1FF5D"/>
<stop offset="1" stop-color="#05664F"/>
</linearGradient>
</defs>
</svg>
