<svg width="495" height="427" viewBox="0 0 495 427" fill="none" xmlns="http://www.w3.org/2000/svg">
<g clip-path="url(#clip0_18_146)">
<path opacity="0.1" d="M466.497 198.491C449.691 219.813 456.219 250.964 466.898 275.906C470.479 284.259 474.519 293.076 473.014 302.034C471.171 312.985 461.395 321.006 451.086 325.222C432.337 332.958 409.891 331.114 392.669 320.421C377.78 311.178 367.117 296.148 351.976 287.326C326.625 272.57 294.377 278.141 266.861 288.306C247.394 295.5 226.111 304.859 206.765 297.339C193.155 292.069 183.744 279.174 178.615 265.525C176.138 258.932 174.343 251.823 169.637 246.553C166.827 243.449 163.162 241.241 159.402 239.386C125.073 222.411 81.766 231.481 48.4512 212.678C25.9474 199.967 11.5398 175.983 5.14412 150.978C-1.2516 125.972 -0.491088 99.7489 1.13029 74.0001C2.28162 55.6977 4.34663 36.1621 16.0659 22.0335C28.456 7.15126 49.7346 1.59677 68.9904 4.43725C88.2462 7.27773 105.654 17.4012 120.985 29.3218C140.151 44.2198 157.923 62.7752 181.457 68.8145C197.48 72.925 214.338 70.6748 230.869 69.9001C258.501 68.5984 286.138 71.4811 313.617 74.643C339.924 77.6785 366.431 81.0196 391.48 89.5569C409.215 95.6015 423.432 106.568 440.18 114.231C451.096 119.226 463 120.607 473.331 126.968C486.064 134.804 497.73 148.438 494.456 164.384C491.345 179.567 475.422 187.15 466.497 198.491Z" fill="#00C9B5"/>
<path opacity="0.1" d="M39.0503 372.957C42.8106 374.891 46.7505 376.562 50.6376 378.227C64.9976 384.277 79.5741 390.379 95.0009 392.456C123.953 396.35 153.856 385.805 182.318 392.366C206.163 397.857 225.883 414.684 249.179 422.178C260.011 425.661 271.282 427.026 282.653 427.026H284.121C285.529 427.009 286.927 426.974 288.314 426.921C299.843 426.489 311.42 424.787 322.722 422.61C358.408 415.759 394.728 403.201 422.012 380.082C342.591 365.574 178.948 343.345 39.0503 372.957Z" fill="#00C9B5"/>
<path d="M58.5067 371.413C58.5067 371.413 71.5358 327.272 56.0615 294.783C49.5654 281.15 47.4106 265.841 50.4104 251.043C51.8448 244.017 53.9221 237.137 56.616 230.49" stroke="#535461" stroke-width="2" stroke-miterlimit="10"/>
<path d="M46.9934 209.985C46.9934 215.397 56.8114 231.065 56.8114 231.065C56.8114 231.065 66.6295 215.376 66.6295 209.985C66.57 207.427 65.5098 204.993 63.6755 203.205C61.8412 201.417 59.3786 200.415 56.8141 200.415C54.2496 200.415 51.7869 201.417 49.9527 203.205C48.1184 204.993 47.0582 207.427 46.9987 209.985H46.9934Z" fill="#00C9B5"/>
<path d="M30.7639 239.95C33.7109 244.492 50.4951 252.334 50.4951 252.334C50.4951 252.334 50.1888 233.842 47.2418 229.299C46.5576 228.184 45.6568 227.217 44.5924 226.455C43.5279 225.693 42.3214 225.151 41.0439 224.862C39.7663 224.572 38.4436 224.541 37.1537 224.769C35.8638 224.997 34.6327 225.481 33.533 226.192C32.4332 226.902 31.4871 227.825 30.7504 228.906C30.0137 229.987 29.5012 231.204 29.2431 232.486C28.9851 233.767 28.9867 235.087 29.2479 236.368C29.5091 237.649 30.0245 238.865 30.7639 239.944V239.95Z" fill="#00C9B5"/>
<path d="M31.4927 291.157C36.3357 293.592 54.7887 291.911 54.7887 291.911C54.7887 291.911 45.1714 276.101 40.3284 273.667C39.1737 273.049 37.9067 272.668 36.6022 272.546C35.2977 272.425 33.9819 272.565 32.7325 272.958C31.4831 273.352 30.3253 273.991 29.3274 274.838C28.3294 275.686 27.5114 276.723 26.9217 277.891C26.3319 279.058 25.9823 280.332 25.8935 281.636C25.8046 282.94 25.9783 284.249 26.4043 285.486C26.8302 286.722 27.4999 287.861 28.3738 288.835C29.2477 289.809 30.3081 290.599 31.4927 291.157Z" fill="#00C9B5"/>
<path d="M40.7561 329.781C45.1132 332.995 63.5926 334.45 63.5926 334.45C63.5926 334.45 56.7903 317.249 52.4332 314.029C50.3384 312.508 47.7264 311.876 45.1661 312.268C42.6059 312.661 40.3049 314.047 38.7644 316.125C37.224 318.203 36.5689 320.804 36.942 323.362C37.315 325.92 38.686 328.227 40.7561 329.781Z" fill="#00C9B5"/>
<path d="M71.1028 253.383C67.2158 257.151 49.0955 261.056 49.0955 261.056C49.0955 261.056 53.5318 243.101 57.4189 239.328C59.2867 237.517 61.7989 236.521 64.4028 236.559C67.0066 236.596 69.4889 237.664 71.3035 239.528C73.1181 241.392 74.1164 243.899 74.0788 246.497C74.0412 249.095 72.9707 251.572 71.1028 253.383Z" fill="#00C9B5"/>
<path d="M81.3856 298.693C76.5426 301.128 58.0896 299.447 58.0896 299.447C58.0896 299.447 67.7069 283.637 72.5499 281.203C74.8672 280.094 77.5279 279.935 79.9608 280.762C82.3936 281.589 84.4046 283.334 85.5619 285.624C86.7193 287.914 86.9307 290.565 86.1509 293.009C85.3711 295.452 83.6621 297.493 81.3909 298.693H81.3856Z" fill="#00C9B5"/>
<path d="M85.3202 344.094C80.9631 347.308 62.4836 348.763 62.4836 348.763C62.4836 348.763 69.286 331.562 73.6431 328.342C75.7379 326.821 78.3499 326.189 80.9102 326.581C83.4704 326.974 85.7714 328.36 87.3119 330.438C88.8523 332.516 89.5074 335.118 89.1343 337.675C88.7613 340.233 87.3903 342.54 85.3202 344.094Z" fill="#00C9B5"/>
<path opacity="0.25" d="M46.9934 209.985C46.9934 215.397 56.8114 231.065 56.8114 231.065C56.8114 231.065 66.6295 215.376 66.6295 209.985C66.57 207.427 65.5098 204.993 63.6755 203.205C61.8412 201.417 59.3786 200.415 56.8141 200.415C54.2496 200.415 51.7869 201.417 49.9527 203.205C48.1184 204.993 47.0582 207.427 46.9987 209.985H46.9934Z" fill="black"/>
<path opacity="0.25" d="M30.7639 239.95C33.7109 244.492 50.4951 252.334 50.4951 252.334C50.4951 252.334 50.1888 233.842 47.2418 229.299C46.5576 228.184 45.6568 227.217 44.5924 226.455C43.5279 225.693 42.3214 225.151 41.0439 224.862C39.7663 224.572 38.4436 224.541 37.1537 224.769C35.8638 224.997 34.6327 225.481 33.533 226.192C32.4332 226.902 31.4871 227.825 30.7504 228.906C30.0137 229.987 29.5012 231.204 29.2431 232.486C28.9851 233.767 28.9867 235.087 29.2479 236.368C29.5091 237.649 30.0245 238.865 30.7639 239.944V239.95Z" fill="black"/>
<path opacity="0.25" d="M31.4927 291.157C36.3357 293.592 54.7887 291.911 54.7887 291.911C54.7887 291.911 45.1714 276.101 40.3284 273.667C39.1737 273.049 37.9067 272.668 36.6022 272.546C35.2977 272.425 33.9819 272.565 32.7325 272.958C31.4831 273.352 30.3253 273.991 29.3274 274.838C28.3294 275.686 27.5114 276.723 26.9217 277.891C26.3319 279.058 25.9823 280.332 25.8935 281.636C25.8046 282.94 25.9783 284.249 26.4043 285.486C26.8302 286.722 27.4999 287.861 28.3738 288.835C29.2477 289.809 30.3081 290.599 31.4927 291.157Z" fill="black"/>
<path opacity="0.25" d="M40.7561 329.781C45.1132 332.995 63.5926 334.45 63.5926 334.45C63.5926 334.45 56.7903 317.249 52.4332 314.029C50.3384 312.508 47.7264 311.876 45.1661 312.268C42.6059 312.661 40.3049 314.047 38.7644 316.125C37.224 318.203 36.5689 320.804 36.942 323.362C37.315 325.92 38.686 328.227 40.7561 329.781Z" fill="black"/>
<path opacity="0.25" d="M71.1028 253.383C67.2158 257.151 49.0955 261.056 49.0955 261.056C49.0955 261.056 53.5318 243.101 57.4189 239.328C59.2867 237.517 61.7989 236.521 64.4028 236.559C67.0066 236.596 69.4889 237.664 71.3035 239.528C73.1181 241.392 74.1164 243.899 74.0788 246.497C74.0412 249.095 72.9707 251.572 71.1028 253.383Z" fill="black"/>
<path opacity="0.25" d="M81.3856 298.693C76.5426 301.128 58.0896 299.447 58.0896 299.447C58.0896 299.447 67.7069 283.637 72.5499 281.203C74.8672 280.094 77.5279 279.935 79.9608 280.762C82.3936 281.589 84.4046 283.334 85.5619 285.624C86.7193 287.914 86.9307 290.565 86.1509 293.009C85.3711 295.452 83.6621 297.493 81.3909 298.693H81.3856Z" fill="black"/>
<path opacity="0.25" d="M85.3202 344.094C80.9631 347.308 62.4836 348.763 62.4836 348.763C62.4836 348.763 69.286 331.562 73.6431 328.342C75.7379 326.821 78.3499 326.189 80.9102 326.581C83.4704 326.974 85.7714 328.36 87.3119 330.438C88.8523 332.516 89.5074 335.118 89.1343 337.675C88.7613 340.233 87.3903 342.54 85.3202 344.094Z" fill="black"/>
<path d="M125.733 357.969C125.733 357.969 132.789 334.07 124.413 316.485C120.853 309.13 119.78 300.822 121.355 292.807C122.132 289.008 123.256 285.287 124.714 281.693" stroke="#535461" stroke-width="2" stroke-miterlimit="10"/>
<path d="M119.501 270.573C119.501 273.503 124.814 281.993 124.814 281.993C124.814 281.993 130.127 273.498 130.127 270.573C130.127 269.166 129.567 267.817 128.57 266.823C127.573 265.828 126.221 265.269 124.812 265.269C123.402 265.269 122.05 265.828 121.053 266.823C120.056 267.817 119.496 269.166 119.496 270.573H119.501Z" fill="#00C9B5"/>
<path d="M110.713 286.794C112.297 289.25 121.397 293.497 121.397 293.497C121.397 293.497 121.234 283.484 119.639 281.029C119.259 280.444 118.768 279.939 118.193 279.544C117.619 279.149 116.971 278.87 116.289 278.724C115.606 278.578 114.901 278.568 114.215 278.694C113.528 278.82 112.873 279.08 112.287 279.458C111.701 279.837 111.195 280.327 110.799 280.9C110.403 281.474 110.124 282.12 109.977 282.801C109.831 283.482 109.821 284.185 109.947 284.87C110.073 285.556 110.334 286.209 110.713 286.794Z" fill="#00C9B5"/>
<path d="M111.099 314.519C113.739 315.836 123.71 314.925 123.71 314.925C123.71 314.925 118.503 306.366 115.883 305.049C115.259 304.735 114.579 304.548 113.882 304.496C113.185 304.445 112.485 304.531 111.822 304.75C111.158 304.969 110.544 305.316 110.015 305.771C109.486 306.227 109.052 306.782 108.738 307.405C108.424 308.027 108.235 308.706 108.184 309.401C108.133 310.097 108.219 310.795 108.438 311.457C108.658 312.12 109.005 312.732 109.462 313.26C109.918 313.788 110.474 314.221 111.099 314.535V314.519Z" fill="#00C9B5"/>
<path d="M116.121 335.43C118.482 337.169 128.485 337.96 128.485 337.96C128.485 337.96 124.788 328.648 122.443 326.893C121.882 326.477 121.244 326.177 120.567 326.007C119.889 325.838 119.185 325.803 118.494 325.906C117.803 326.008 117.138 326.245 116.539 326.603C115.94 326.962 115.418 327.434 115.001 327.994C114.585 328.554 114.284 329.19 114.114 329.866C113.944 330.542 113.91 331.245 114.012 331.935C114.115 332.624 114.352 333.287 114.711 333.885C115.071 334.483 115.544 335.004 116.105 335.419L116.121 335.43Z" fill="#00C9B5"/>
<path d="M132.557 294.066C130.444 296.106 120.642 298.219 120.642 298.219C120.642 298.219 123.045 288.496 125.147 286.457C125.643 285.95 126.236 285.547 126.89 285.273C127.545 284.999 128.248 284.858 128.958 284.859C129.667 284.861 130.37 285.004 131.023 285.281C131.677 285.557 132.268 285.962 132.762 286.471C133.256 286.979 133.644 287.581 133.9 288.242C134.157 288.902 134.279 289.607 134.259 290.315C134.238 291.023 134.075 291.72 133.78 292.364C133.485 293.009 133.064 293.587 132.541 294.066H132.557Z" fill="#00C9B5"/>
<path d="M138.118 318.598C135.477 319.915 125.506 319.004 125.506 319.004C125.506 319.004 130.714 310.445 133.333 309.128C133.957 308.814 134.637 308.627 135.334 308.575C136.031 308.524 136.731 308.61 137.395 308.829C138.058 309.048 138.672 309.395 139.201 309.85C139.73 310.306 140.165 310.861 140.479 311.483C140.793 312.106 140.981 312.785 141.032 313.48C141.084 314.176 140.997 314.874 140.778 315.536C140.559 316.199 140.211 316.811 139.755 317.339C139.298 317.867 138.742 318.3 138.118 318.614V318.598Z" fill="#00C9B5"/>
<path d="M140.252 343.177C137.891 344.916 127.888 345.706 127.888 345.706C127.888 345.706 131.585 336.394 133.93 334.639C135.063 333.801 136.484 333.446 137.879 333.652C139.275 333.859 140.531 334.61 141.371 335.741C142.212 336.872 142.567 338.289 142.36 339.682C142.153 341.074 141.401 342.328 140.267 343.166L140.252 343.177Z" fill="#00C9B5"/>
<path opacity="0.5" d="M119.501 270.573C119.501 273.503 124.814 281.993 124.814 281.993C124.814 281.993 130.127 273.498 130.127 270.573C130.127 269.166 129.567 267.817 128.57 266.823C127.573 265.828 126.221 265.269 124.812 265.269C123.402 265.269 122.05 265.828 121.053 266.823C120.056 267.817 119.496 269.166 119.496 270.573H119.501Z" fill="white"/>
<path opacity="0.5" d="M110.713 286.794C112.297 289.25 121.397 293.497 121.397 293.497C121.397 293.497 121.234 283.484 119.639 281.029C119.259 280.444 118.768 279.939 118.193 279.544C117.619 279.149 116.971 278.87 116.289 278.724C115.606 278.578 114.901 278.568 114.215 278.694C113.528 278.82 112.873 279.08 112.287 279.458C111.701 279.837 111.195 280.327 110.799 280.9C110.403 281.474 110.124 282.12 109.977 282.801C109.831 283.482 109.821 284.185 109.947 284.87C110.073 285.556 110.334 286.209 110.713 286.794Z" fill="white"/>
<path opacity="0.5" d="M111.099 314.519C113.739 315.836 123.71 314.925 123.71 314.925C123.71 314.925 118.503 306.366 115.883 305.049C115.259 304.735 114.579 304.548 113.882 304.496C113.185 304.445 112.485 304.531 111.822 304.75C111.158 304.969 110.544 305.316 110.015 305.771C109.486 306.227 109.052 306.782 108.738 307.405C108.424 308.027 108.235 308.706 108.184 309.401C108.133 310.097 108.219 310.795 108.438 311.457C108.658 312.12 109.005 312.732 109.462 313.26C109.918 313.788 110.474 314.221 111.099 314.535V314.519Z" fill="white"/>
<path opacity="0.5" d="M116.121 335.43C118.482 337.169 128.485 337.96 128.485 337.96C128.485 337.96 124.788 328.648 122.443 326.893C121.882 326.477 121.244 326.177 120.567 326.007C119.889 325.838 119.185 325.803 118.494 325.906C117.803 326.008 117.138 326.245 116.539 326.603C115.94 326.962 115.418 327.434 115.001 327.994C114.585 328.554 114.284 329.19 114.114 329.866C113.944 330.542 113.91 331.245 114.012 331.935C114.115 332.624 114.352 333.287 114.711 333.885C115.071 334.483 115.544 335.004 116.105 335.419L116.121 335.43Z" fill="white"/>
<path opacity="0.5" d="M132.557 294.066C130.444 296.106 120.642 298.219 120.642 298.219C120.642 298.219 123.045 288.496 125.147 286.457C125.643 285.95 126.236 285.547 126.89 285.273C127.545 284.999 128.248 284.858 128.958 284.859C129.667 284.861 130.37 285.004 131.023 285.281C131.677 285.557 132.268 285.962 132.762 286.471C133.256 286.979 133.644 287.581 133.9 288.242C134.157 288.902 134.279 289.607 134.259 290.315C134.238 291.023 134.075 291.72 133.78 292.364C133.485 293.009 133.064 293.587 132.541 294.066H132.557Z" fill="white"/>
<path opacity="0.5" d="M138.118 318.598C135.477 319.915 125.506 319.004 125.506 319.004C125.506 319.004 130.714 310.445 133.333 309.128C133.957 308.814 134.637 308.627 135.334 308.575C136.031 308.524 136.731 308.61 137.395 308.829C138.058 309.048 138.672 309.395 139.201 309.85C139.73 310.306 140.165 310.861 140.479 311.483C140.793 312.106 140.981 312.785 141.032 313.48C141.084 314.176 140.997 314.874 140.778 315.536C140.559 316.199 140.211 316.811 139.755 317.339C139.298 317.867 138.742 318.3 138.118 318.614V318.598Z" fill="white"/>
<path opacity="0.5" d="M140.252 343.177C137.891 344.916 127.888 345.706 127.888 345.706C127.888 345.706 131.585 336.394 133.93 334.639C135.063 333.801 136.484 333.446 137.879 333.652C139.275 333.859 140.531 334.61 141.371 335.741C142.212 336.872 142.567 338.289 142.36 339.682C142.153 341.074 141.401 342.328 140.267 343.166L140.252 343.177Z" fill="white"/>
<g opacity="0.6">
<path opacity="0.6" d="M110.533 28.5945C109.741 29.2432 109.122 30.0785 108.734 31.0253C108.346 31.972 108.2 33.0002 108.31 34.0173C109.033 40.7206 111.209 55.9665 116.633 64.5511C116.954 65.0606 117.288 65.5472 117.637 66.0109H146.953C146.953 66.0109 152.932 43.8193 153.328 34.0383C153.374 32.9103 153.16 31.7868 152.702 30.7544C152.244 29.722 151.555 28.8082 150.687 28.0833C146.293 24.4418 135.979 16.4895 130.127 17.0165H130.011C130.011 17.0165 127.761 14.5028 110.533 28.5945Z" fill="#D6DBE6"/>
<path opacity="0.05" d="M108.31 34.0172C109.033 40.7206 111.209 55.9664 116.633 64.5511C117.8 65.0781 118.994 65.5471 120.177 66.0109C127.571 68.8935 134.558 70.5957 133.428 66.0109C133.17 65.1047 132.79 64.2377 132.298 63.4339C125.575 51.7611 128.685 26.3074 130.111 17.0587H129.995C129.995 17.0587 127.766 14.5186 110.539 28.6103C109.747 29.2569 109.129 30.0894 108.74 31.0332C108.351 31.9769 108.203 33.0023 108.31 34.0172Z" fill="black"/>
<path opacity="0.6" d="M117.457 65.2257C117.457 66.5116 118.556 67.6973 120.409 68.6564C121.678 69.2846 123.016 69.7621 124.397 70.0793C126.993 70.6831 129.653 70.9786 132.319 70.9594C135.524 70.9995 138.716 70.5553 141.788 69.6419C143.043 69.2673 144.235 68.7097 145.327 67.9872C146.489 67.1703 147.154 66.2323 147.154 65.231C147.154 63.7712 145.744 62.4432 143.425 61.4314C143.052 61.2663 142.654 61.1117 142.232 60.9676C139.03 59.9478 135.684 59.4531 132.324 59.5026C127.613 59.5026 123.42 60.351 120.705 61.6738C120.248 61.8938 119.809 62.1475 119.39 62.4327C118.149 63.2548 117.457 64.2086 117.457 65.2257Z" fill="#D6DBE6"/>
<path opacity="0.1" d="M117.146 65.2257C117.146 66.5116 118.244 67.6973 120.098 68.6564C121.367 69.2846 122.705 69.7621 124.085 70.0793C126.682 70.6831 129.341 70.9786 132.007 70.9594C135.212 70.9995 138.405 70.5553 141.477 69.6419C142.731 69.2673 143.924 68.7097 145.015 67.9872C146.177 67.1703 146.843 66.2323 146.843 65.231C146.843 63.7712 145.432 62.4432 143.114 61.4314C142.741 61.2663 142.343 61.1117 141.92 60.9676C138.719 59.9478 135.373 59.4531 132.013 59.5026C127.302 59.5026 123.108 60.351 120.394 61.6738C119.937 61.8938 119.497 62.1475 119.078 62.4327C117.832 63.2548 117.146 64.2086 117.146 65.2257Z" fill="black"/>
<path opacity="0.6" d="M135.129 66.7856C135.571 65.9849 135.712 65.0524 135.525 64.1572C135.338 63.262 134.836 62.4633 134.109 61.9056C134.109 61.9056 133.095 60.6883 133.719 59.5816C133.719 59.5816 128.538 62.9965 131.178 66.9226L135.129 66.7856Z" fill="#FFD865"/>
<path opacity="0.6" d="M133.866 66.9015C134.065 66.5409 134.129 66.1209 134.044 65.7178C133.96 65.3147 133.734 64.955 133.407 64.7039C133.286 64.5597 133.207 64.3859 133.176 64.2006C133.145 64.0153 133.165 63.8252 133.233 63.65C133.233 63.65 130.898 65.1888 132.092 66.9542L133.866 66.9015Z" fill="#FFD865"/>
<path opacity="0.1" d="M133.866 66.9015C134.065 66.5409 134.129 66.1209 134.044 65.7178C133.96 65.3147 133.734 64.955 133.407 64.7039C133.286 64.5597 133.207 64.3859 133.176 64.2006C133.145 64.0153 133.165 63.8252 133.233 63.65C133.233 63.65 130.898 65.1888 132.092 66.9542L133.866 66.9015Z" fill="black"/>
<path opacity="0.6" d="M120.409 68.6564C121.678 69.2845 123.017 69.7621 124.397 70.0793C128.622 69.0991 140.769 65.9477 143.41 61.4313C143.037 61.2662 142.639 61.1116 142.216 60.9676C140.505 62.9438 133.634 69.7894 120.409 68.6564Z" fill="#565387"/>
<path opacity="0.6" d="M119.353 62.4221C120.937 65.2731 135.725 68.4509 141.762 69.6366C143.017 69.262 144.209 68.7044 145.3 67.9818C136.701 67.8701 128.254 65.7014 120.668 61.658C120.211 61.8797 119.772 62.1351 119.353 62.4221Z" fill="#565387"/>
<path opacity="0.35" d="M138.176 28.3626C139.047 29.2164 138.804 30.6287 138.704 31.8408C138.535 34.1083 139.115 36.3687 140.357 38.2753C141.128 39.4505 142.19 40.6521 142 42.0433C141.809 43.4346 140.357 44.3674 139.586 45.5953C138.815 46.8231 138.751 48.4674 138.979 49.9482C139.206 51.429 139.665 52.873 139.781 54.3644C139.833 54.7056 139.795 55.0542 139.67 55.3762C139.482 55.6893 139.232 55.9616 138.936 56.1772C138.448 56.6133 138.039 57.1303 137.727 57.7055C137.573 58.0579 137.367 58.3848 137.114 58.6752C136.898 58.8688 136.647 59.0206 136.375 59.1231C134.394 59.9558 132.113 59.8082 130.069 59.1547C128.05 58.4207 126.125 57.4513 124.333 56.2668C123.825 56.0004 123.371 55.6431 122.992 55.2128C122.564 54.5719 122.339 53.8171 122.348 53.0469C122.263 51.3974 122.575 49.7374 122.379 48.0932C122.184 46.449 121.418 44.7942 120.948 43.1395C120.056 39.9833 120.185 36.6267 121.318 33.5482C121.725 32.2561 122.491 31.1052 123.525 30.2282C125.828 28.4786 129.176 29.1742 131.843 28.0623C133.84 27.2191 136.348 26.5656 138.176 28.3626Z" fill="#FFD865"/>
</g>
<g opacity="0.6">
<path opacity="0.6" d="M65.2142 107.78C64.7553 108.155 64.3972 108.638 64.1722 109.185C63.9473 109.733 63.8625 110.327 63.9255 110.916C64.3427 114.789 65.5997 123.606 68.7368 128.57C68.9234 128.865 69.1171 129.146 69.3178 129.413H86.2656C86.2656 129.413 89.7196 116.586 89.9626 110.932C89.9885 110.279 89.8634 109.629 89.5969 109.032C89.3304 108.435 88.9296 107.908 88.4257 107.49C85.8854 105.382 79.9227 100.798 76.5427 101.103H76.474C76.474 101.103 75.1748 99.6329 65.2142 107.78Z" fill="#D6DBE6"/>
<path opacity="0.05" d="M63.9307 110.916C64.3479 114.789 65.6049 123.606 68.742 128.57C69.418 128.86 70.1046 129.145 70.7912 129.413C75.0532 131.079 79.104 132.048 78.4491 129.413C78.2999 128.889 78.0795 128.387 77.7942 127.922C73.9072 121.176 75.6817 106.463 76.532 101.098H76.4633C76.4633 101.098 75.1747 99.6277 65.2193 107.775C64.7597 108.15 64.4011 108.634 64.1761 109.182C63.9511 109.731 63.8667 110.327 63.9307 110.916Z" fill="black"/>
<path opacity="0.6" d="M69.2175 128.955C69.2175 129.698 69.8513 130.383 70.9234 130.936C71.6562 131.299 72.429 131.575 73.2261 131.758C74.721 132.112 76.2527 132.289 77.7892 132.285C79.6385 132.301 81.4795 132.038 83.2501 131.505C83.9768 131.288 84.6674 130.965 85.2993 130.546C85.5895 130.387 85.8371 130.16 86.0209 129.885C86.2048 129.609 86.3195 129.294 86.3555 128.965C86.3555 128.122 85.5422 127.353 84.2007 126.768C83.9824 126.673 83.7518 126.583 83.5089 126.499C81.6574 125.909 79.7221 125.622 77.7786 125.651C75.0587 125.651 72.6293 126.141 71.0607 126.905C70.7967 127.032 70.5425 127.178 70.3002 127.342C70.0035 127.505 69.7502 127.736 69.5618 128.017C69.3734 128.297 69.2553 128.619 69.2175 128.955Z" fill="#D6DBE6"/>
<path opacity="0.1" d="M69.0378 128.955C69.0378 129.698 69.6716 130.383 70.7437 130.936C71.4765 131.299 72.2493 131.575 73.0464 131.758C74.5414 132.112 76.073 132.289 77.6095 132.285C79.4615 132.308 81.3062 132.05 83.081 131.521C83.8077 131.304 84.4983 130.981 85.1301 130.562C85.4204 130.403 85.6679 130.176 85.8518 129.9C86.0356 129.625 86.1504 129.31 86.1864 128.981C86.1864 128.138 85.3731 127.369 84.0316 126.784C83.8133 126.689 83.5827 126.599 83.3398 126.515C81.4883 125.924 79.553 125.638 77.6095 125.666C74.8896 125.666 72.4602 126.156 70.8916 126.921C70.6276 127.047 70.3734 127.194 70.1311 127.358C69.8344 127.518 69.5803 127.746 69.3901 128.024C69.1999 128.302 69.0791 128.621 69.0378 128.955Z" fill="black"/>
<path opacity="0.6" d="M79.437 129.856C79.6934 129.394 79.7753 128.855 79.6678 128.338C79.5602 127.82 79.2703 127.359 78.8507 127.037C78.6937 126.855 78.5895 126.633 78.5495 126.396C78.5095 126.159 78.5351 125.916 78.6236 125.693C78.6236 125.693 75.6291 127.669 77.1554 129.935L79.437 129.856Z" fill="#FFD865"/>
<path opacity="0.6" d="M78.7028 129.924C78.818 129.716 78.8547 129.474 78.8063 129.241C78.7579 129.008 78.6275 128.8 78.4387 128.654C78.3684 128.572 78.3218 128.472 78.3042 128.365C78.2865 128.258 78.2983 128.149 78.3383 128.048C78.3383 128.048 76.9916 128.939 77.6782 129.956L78.7028 129.924Z" fill="#FFD865"/>
<path opacity="0.1" d="M78.7028 129.924C78.818 129.716 78.8547 129.474 78.8063 129.241C78.7579 129.008 78.6275 128.8 78.4387 128.654C78.3684 128.572 78.3218 128.472 78.3042 128.365C78.2865 128.258 78.2983 128.149 78.3383 128.048C78.3383 128.048 76.9916 128.939 77.6782 129.956L78.7028 129.924Z" fill="black"/>
<path opacity="0.6" d="M70.9233 130.942C71.6561 131.304 72.4289 131.58 73.226 131.764C75.6713 131.2 82.6849 129.376 84.2112 126.763C83.9929 126.668 83.7623 126.578 83.5194 126.494C82.5423 127.637 78.5707 131.595 70.9233 130.942Z" fill="#565387"/>
<path opacity="0.6" d="M70.3159 127.337C71.2296 128.986 79.7854 130.82 83.2711 131.505C83.9978 131.288 84.6884 130.965 85.3202 130.546C80.3425 130.486 75.452 129.234 71.0606 126.894C70.8018 127.023 70.5529 127.171 70.3159 127.337Z" fill="#565387"/>
<path opacity="0.35" d="M81.2008 107.649C81.7289 108.139 81.5652 108.961 81.5071 109.662C81.4092 110.973 81.745 112.28 82.463 113.382C82.9067 114.062 83.5193 114.758 83.4137 115.559C83.3081 116.36 82.463 116.902 82.0194 117.614C81.6072 118.384 81.4818 119.274 81.6656 120.128C81.7976 120.981 82.0617 121.819 82.1303 122.678C82.1604 122.875 82.1386 123.077 82.0669 123.263C81.9585 123.444 81.8149 123.602 81.6444 123.727C81.3626 123.98 81.1268 124.279 80.9473 124.612C80.8583 124.815 80.739 125.004 80.5934 125.171C80.468 125.283 80.323 125.37 80.1657 125.429C78.9894 125.861 77.6978 125.861 76.5215 125.429C75.3539 125.005 74.2406 124.444 73.2048 123.759C72.9106 123.604 72.6475 123.397 72.4285 123.147C72.1806 122.778 72.05 122.343 72.0535 121.898C72.006 120.945 72.1855 119.985 72.0535 119.037C71.8524 118.061 71.5752 117.103 71.2243 116.17C70.7093 114.345 70.7851 112.405 71.4409 110.626C71.6773 109.879 72.1204 109.214 72.7189 108.708C74.0498 107.696 75.9881 108.107 77.5303 107.454C78.6869 106.99 80.1392 106.61 81.2008 107.649Z" fill="#FFD865"/>
</g>
<g opacity="0.6">
<path opacity="0.6" d="M334.563 97.6094C334.104 97.9841 333.746 98.467 333.521 99.0145C333.296 99.5619 333.211 100.157 333.274 100.745C333.692 104.618 334.949 113.435 338.086 118.399C338.272 118.694 338.466 118.975 338.667 119.242H355.614C355.614 119.242 359.068 106.415 359.311 100.761C359.337 100.108 359.212 99.4579 358.946 98.8611C358.679 98.2643 358.278 97.7368 357.775 97.3195C355.234 95.2116 349.272 90.6267 345.892 90.9324H345.823C345.823 90.9324 344.524 89.4621 334.563 97.6094Z" fill="#D6DBE6"/>
<path opacity="0.05" d="M333.28 100.724C333.697 104.597 334.954 113.414 338.091 118.378C338.767 118.668 339.454 118.953 340.14 119.221C344.402 120.887 348.453 121.856 347.798 119.221C347.649 118.697 347.429 118.195 347.143 117.73C343.256 110.984 345.031 96.2708 345.881 90.906H345.812C345.812 90.906 344.524 89.4357 334.568 97.583C334.109 97.9583 333.75 98.442 333.525 98.9905C333.3 99.5389 333.216 100.135 333.28 100.724Z" fill="black"/>
<path opacity="0.6" d="M338.566 118.784C338.566 119.527 339.2 120.212 340.272 120.765C341.005 121.128 341.778 121.404 342.575 121.587C344.07 121.942 345.602 122.118 347.138 122.114C348.987 122.13 350.828 121.867 352.599 121.334C353.326 121.117 354.016 120.794 354.648 120.375C354.938 120.216 355.186 119.989 355.37 119.714C355.554 119.438 355.668 119.123 355.704 118.794C355.704 117.951 354.891 117.182 353.55 116.597C353.331 116.502 353.101 116.412 352.858 116.328C351.011 115.739 349.082 115.453 347.143 115.48C344.423 115.48 341.994 115.97 340.425 116.734C340.161 116.861 339.907 117.007 339.665 117.171C339.365 117.332 339.109 117.562 338.918 117.843C338.726 118.124 338.606 118.447 338.566 118.784Z" fill="#D6DBE6"/>
<path opacity="0.1" d="M338.387 118.784C338.387 119.527 339.02 120.212 340.093 120.765C340.825 121.128 341.598 121.404 342.395 121.587C343.89 121.942 345.422 122.118 346.958 122.114C348.81 122.137 350.655 121.879 352.43 121.35C353.157 121.133 353.847 120.81 354.479 120.391C354.769 120.232 355.017 120.005 355.201 119.729C355.385 119.454 355.499 119.139 355.535 118.81C355.535 117.967 354.722 117.198 353.38 116.613C353.162 116.518 352.932 116.428 352.689 116.344C350.84 115.749 348.906 115.457 346.964 115.48C344.244 115.48 341.814 115.97 340.246 116.734C339.982 116.861 339.727 117.007 339.485 117.171C339.186 117.332 338.929 117.562 338.738 117.843C338.547 118.124 338.426 118.447 338.387 118.784Z" fill="black"/>
<path opacity="0.6" d="M348.786 119.696C349.042 119.233 349.124 118.695 349.017 118.177C348.909 117.66 348.619 117.198 348.2 116.876C348.043 116.694 347.938 116.473 347.898 116.236C347.858 115.999 347.884 115.756 347.972 115.532C347.972 115.532 344.978 117.509 346.504 119.775L348.786 119.696Z" fill="#FFD865"/>
<path opacity="0.6" d="M348.052 119.754C348.167 119.545 348.204 119.303 348.155 119.07C348.107 118.837 347.976 118.629 347.788 118.484C347.717 118.401 347.671 118.301 347.653 118.194C347.635 118.088 347.647 117.978 347.687 117.877C347.687 117.877 346.34 118.768 347.027 119.785L348.052 119.754Z" fill="#FFD865"/>
<path opacity="0.1" d="M348.052 119.754C348.167 119.545 348.204 119.303 348.155 119.07C348.107 118.837 347.976 118.629 347.788 118.484C347.717 118.401 347.671 118.301 347.653 118.194C347.635 118.088 347.647 117.978 347.687 117.877C347.687 117.877 346.34 118.768 347.027 119.785L348.052 119.754Z" fill="black"/>
<path opacity="0.6" d="M340.272 120.75C341.005 121.112 341.778 121.388 342.575 121.572C345.02 121.008 352.034 119.184 353.56 116.571C353.342 116.476 353.111 116.386 352.868 116.302C351.891 117.466 347.92 121.419 340.272 120.75Z" fill="#565387"/>
<path opacity="0.6" d="M339.665 117.161C340.578 118.81 349.134 120.644 352.62 121.329C353.347 121.112 354.037 120.789 354.669 120.37C349.691 120.31 344.801 119.058 340.409 116.718C340.151 116.847 339.902 116.995 339.665 117.161Z" fill="#565387"/>
<path opacity="0.35" d="M350.55 97.4724C351.078 97.9625 350.914 98.7846 350.856 99.4855C350.758 100.797 351.094 102.104 351.812 103.206C352.256 103.886 352.868 104.581 352.763 105.383C352.657 106.184 351.812 106.726 351.368 107.438C350.956 108.208 350.831 109.098 351.014 109.952C351.146 110.805 351.411 111.643 351.479 112.502C351.509 112.699 351.487 112.901 351.416 113.087C351.307 113.268 351.164 113.426 350.993 113.551C350.712 113.804 350.476 114.103 350.296 114.436C350.207 114.639 350.088 114.828 349.942 114.995C349.817 115.106 349.672 115.194 349.515 115.253C348.338 115.684 347.047 115.684 345.87 115.253C344.703 114.828 343.589 114.268 342.554 113.582C342.26 113.428 341.996 113.221 341.777 112.971C341.53 112.602 341.399 112.167 341.402 111.722C341.355 110.768 341.534 109.809 341.402 108.861C341.201 107.885 340.924 106.926 340.573 105.994C340.058 104.169 340.134 102.229 340.79 100.45C341.026 99.7031 341.469 99.0382 342.068 98.5316C343.399 97.5198 345.337 97.9309 346.879 97.2774C348.036 96.8136 349.488 96.4342 350.55 97.4724Z" fill="#FFD865"/>
</g>
<g opacity="0.6">
<path opacity="0.6" d="M381.467 11.7309C380.674 12.3796 380.056 13.2149 379.668 14.1617C379.28 15.1084 379.134 16.1367 379.243 17.1537C379.967 23.857 382.143 39.1029 387.567 47.6875C387.887 48.197 388.222 48.6836 388.57 49.1473H417.887C417.887 49.1473 423.866 26.9452 424.262 17.1748C424.307 16.0467 424.093 14.9232 423.635 13.8908C423.178 12.8584 422.488 11.9446 421.621 11.2198C417.227 7.57825 406.912 -0.374051 401.061 0.15294H400.945C400.945 0.15294 398.695 -2.36081 381.467 11.7309Z" fill="#D6DBE6"/>
<path opacity="0.05" d="M379.243 17.1535C379.967 23.8568 382.143 39.1027 387.567 47.6874C388.734 48.2144 389.928 48.6834 391.111 49.1471C398.505 52.0298 405.492 53.732 404.362 49.1471C404.104 48.2409 403.724 47.3739 403.231 46.5701C396.508 34.8973 399.619 9.44359 401.045 0.194893H400.929C400.929 0.194893 398.7 -2.34521 381.472 11.7465C380.681 12.3931 380.063 13.2256 379.674 14.1694C379.285 15.1131 379.137 16.1385 379.243 17.1535Z" fill="black"/>
<path opacity="0.6" d="M388.391 48.362C388.391 49.6479 389.489 50.8336 391.343 51.7927C392.612 52.4208 393.95 52.8984 395.331 53.2156C397.927 53.8194 400.586 54.1148 403.253 54.0957C406.458 54.1358 409.65 53.6916 412.722 52.7782C413.977 52.4036 415.169 51.846 416.261 51.1234C417.422 50.3066 418.088 49.3686 418.088 48.3673C418.088 46.9075 416.678 45.5795 414.359 44.5677C413.986 44.4025 413.588 44.248 413.166 44.1039C409.964 43.0841 406.618 42.5893 403.258 42.6389C398.547 42.6389 394.353 43.4873 391.639 44.8101C391.182 45.0301 390.743 45.2838 390.324 45.569C389.083 46.3911 388.391 47.3449 388.391 48.362Z" fill="#D6DBE6"/>
<path opacity="0.1" d="M388.079 48.362C388.079 49.6479 389.178 50.8336 391.031 51.7927C392.3 52.4208 393.639 52.8984 395.019 53.2156C397.616 53.8194 400.275 54.1148 402.941 54.0957C406.146 54.1358 409.339 53.6916 412.41 52.7782C413.665 52.4036 414.857 51.846 415.949 51.1234C417.111 50.3066 417.776 49.3686 417.776 48.3673C417.776 46.9075 416.366 45.5795 414.048 44.5677C413.674 44.4025 413.276 44.248 412.854 44.1039C409.652 43.0841 406.306 42.5893 402.946 42.6389C398.235 42.6389 394.042 43.4873 391.327 44.8101C390.871 45.0301 390.431 45.2838 390.012 45.569C388.766 46.3911 388.079 47.3449 388.079 48.362Z" fill="black"/>
<path opacity="0.6" d="M406.062 49.9219C406.505 49.1212 406.645 48.1888 406.458 47.2936C406.271 46.3984 405.769 45.5996 405.043 45.042C405.043 45.042 404.029 43.8246 404.652 42.718C404.652 42.718 399.471 46.1329 402.112 50.0589L406.062 49.9219Z" fill="#FFD865"/>
<path opacity="0.6" d="M404.8 50.0379C404.999 49.6772 405.062 49.2573 404.978 48.8542C404.894 48.4511 404.667 48.0914 404.34 47.8403C404.22 47.696 404.14 47.5223 404.11 47.337C404.079 47.1517 404.098 46.9616 404.166 46.7863C404.166 46.7863 401.832 48.3251 403.025 50.0906L404.8 50.0379Z" fill="#FFD865"/>
<path opacity="0.1" d="M404.8 50.0379C404.999 49.6772 405.062 49.2573 404.978 48.8542C404.894 48.4511 404.667 48.0914 404.34 47.8403C404.22 47.696 404.14 47.5223 404.11 47.337C404.079 47.1517 404.098 46.9616 404.166 46.7863C404.166 46.7863 401.832 48.3251 403.025 50.0906L404.8 50.0379Z" fill="black"/>
<path opacity="0.6" d="M391.343 51.7928C392.612 52.4209 393.95 52.8984 395.33 53.2156C399.556 52.2354 411.703 49.084 414.343 44.5677C413.97 44.4026 413.572 44.248 413.15 44.1039C411.439 46.0802 404.568 52.9258 391.343 51.7928Z" fill="#565387"/>
<path opacity="0.6" d="M390.287 45.5585C391.871 48.4095 406.659 51.5872 412.695 52.773C413.95 52.3983 415.143 51.8407 416.234 51.1182C407.634 51.0064 399.187 48.8378 391.602 44.7943C391.145 45.016 390.705 45.2715 390.287 45.5585Z" fill="#565387"/>
<path opacity="0.35" d="M409.109 11.499C409.981 12.3527 409.738 13.7651 409.638 14.9771C409.468 17.2447 410.049 19.5051 411.291 21.4117C412.062 22.5869 413.123 23.7884 412.933 25.1797C412.743 26.5709 411.291 27.5037 410.52 28.7316C409.748 29.9595 409.685 31.6037 409.912 33.0846C410.139 34.5654 410.599 36.0094 410.715 37.5007C410.766 37.8419 410.728 38.1906 410.604 38.5126C410.415 38.8257 410.166 39.098 409.87 39.3136C409.381 39.7496 408.972 40.2667 408.66 40.8419C408.507 41.1942 408.3 41.5212 408.048 41.8115C407.831 42.0051 407.581 42.157 407.308 42.2595C405.328 43.0921 403.046 42.9446 401.003 42.2911C398.983 41.557 397.058 40.5877 395.267 39.4032C394.759 39.1367 394.304 38.7795 393.926 38.3492C393.497 37.7083 393.273 36.9535 393.281 36.1833C393.197 34.5338 393.508 32.8738 393.313 31.2295C393.117 29.5853 392.352 27.9306 391.882 26.2758C390.989 23.1197 391.119 19.763 392.251 16.6846C392.659 15.3924 393.424 14.2415 394.459 13.3645C396.762 11.6149 400.11 12.3106 402.777 11.1986C404.773 10.3554 407.282 9.70195 409.109 11.499Z" fill="#FFD865"/>
</g>
<path d="M232.485 54.8018C231.153 55.8913 230.113 57.2948 229.46 58.8856C228.807 60.4763 228.562 62.2043 228.746 63.9135C229.961 75.1753 233.61 100.803 242.726 115.206C243.268 116.063 243.829 116.878 244.41 117.651H293.659C293.659 117.651 303.694 80.3714 304.37 63.9451C304.447 62.0457 304.084 60.154 303.309 58.4174C302.534 56.6807 301.368 55.1459 299.902 53.9323C292.508 47.8139 275.195 34.481 265.362 35.3664H265.161C265.161 35.3664 261.422 31.1346 232.485 54.8018Z" fill="#D6DBE6"/>
<path opacity="0.05" d="M228.746 63.9135C229.961 75.1753 233.61 100.803 242.726 115.206C244.685 116.049 246.687 116.876 248.673 117.651C261.052 122.494 272.835 125.35 270.928 117.651C270.496 116.129 269.858 114.674 269.032 113.324C257.735 93.7202 262.959 50.9653 265.335 35.3822H265.134C265.134 35.3822 261.39 31.1136 232.454 54.7808C231.124 55.8756 230.088 57.284 229.441 58.8786C228.793 60.4732 228.555 62.2037 228.746 63.9135Z" fill="black"/>
<path d="M244.12 116.339C244.12 118.499 245.963 120.497 249.074 122.099C251.205 123.153 253.452 123.954 255.771 124.486C260.119 125.496 264.572 125.991 269.037 125.961C275.084 125.961 280.625 125.129 284.939 123.748C287.048 123.118 289.052 122.18 290.886 120.966C292.84 119.59 293.955 118.014 293.955 116.333C293.955 113.888 291.589 111.648 287.691 109.951C287.061 109.677 286.392 109.417 285.684 109.171C281.274 107.638 275.438 106.71 269.037 106.71C261.115 106.71 254.075 108.133 249.496 110.357C248.728 110.725 247.988 111.15 247.283 111.627C245.271 113.024 244.12 114.631 244.12 116.339Z" fill="#D6DBE6"/>
<path opacity="0.1" d="M243.592 116.339C243.592 118.499 245.435 120.497 248.546 122.099C250.677 123.153 252.924 123.954 255.242 124.486C259.591 125.496 264.044 125.991 268.509 125.961C274.556 125.961 280.097 125.129 284.411 123.748C286.52 123.118 288.524 122.18 290.358 120.966C292.312 119.59 293.427 118.014 293.427 116.333C293.427 113.888 291.061 111.648 287.163 109.951C286.533 109.677 285.864 109.417 285.156 109.171C280.746 107.638 274.91 106.71 268.509 106.71C260.587 106.71 253.547 108.133 248.968 110.357C248.2 110.725 247.46 111.15 246.755 111.627C244.743 113.024 243.592 114.631 243.592 116.339Z" fill="black"/>
<path d="M273.806 118.958C273.806 118.958 276.479 114.552 272.095 110.758C272.095 110.758 270.395 108.713 271.435 106.858C271.435 106.858 262.731 112.592 267.168 119.19L273.806 118.958Z" fill="#FFD865"/>
<path d="M271.683 119.169C272.017 118.563 272.124 117.858 271.982 117.182C271.841 116.505 271.461 115.901 270.912 115.48C270.912 115.48 270.146 114.557 270.616 113.725C270.616 113.725 266.698 116.307 268.694 119.274L271.683 119.169Z" fill="#FFD865"/>
<path opacity="0.1" d="M271.683 119.169C272.017 118.563 272.124 117.858 271.982 117.182C271.841 116.505 271.461 115.901 270.912 115.48C270.912 115.48 270.146 114.557 270.616 113.725C270.616 113.725 266.698 116.307 268.694 119.274L271.683 119.169Z" fill="black"/>
<path d="M249.084 122.099C251.216 123.153 253.463 123.954 255.781 124.486C262.885 122.842 283.244 117.545 287.696 109.957C287.066 109.683 286.397 109.423 285.69 109.177C282.832 112.507 271.266 124.001 249.084 122.099Z" fill="#565387"/>
<path d="M247.299 111.633C249.94 116.423 274.81 121.756 284.94 123.753C287.048 123.123 289.052 122.186 290.886 120.971C276.443 120.787 262.255 117.149 249.512 110.363C248.744 110.73 248.004 111.155 247.299 111.633Z" fill="#565387"/>
<path opacity="0.35" d="M278.94 54.4171C280.403 55.8453 279.996 58.2273 279.838 60.2615C279.554 64.0706 280.53 67.8676 282.616 71.0701C283.91 73.0463 285.7 75.0647 285.373 77.394C285.045 79.7233 282.611 81.299 281.317 83.3648C280.023 85.4306 279.917 88.192 280.292 90.6794C280.667 93.1668 281.443 95.591 281.644 98.0942C281.73 98.6684 281.664 99.2551 281.454 99.7964C281.144 100.321 280.733 100.78 280.244 101.145C279.423 101.877 278.736 102.746 278.211 103.712C277.953 104.304 277.605 104.853 277.181 105.34C276.816 105.666 276.394 105.922 275.935 106.094C272.613 107.49 268.779 107.243 265.341 106.141C261.902 105.04 258.786 103.159 255.707 101.288C254.852 100.837 254.088 100.233 253.452 99.5065C252.731 98.4313 252.352 97.164 252.364 95.8703C252.222 93.0983 252.75 90.3052 252.417 87.5491C252.068 84.677 250.806 82.0051 250.009 79.2226C248.512 73.9228 248.73 68.2867 250.632 63.1178C251.419 61.0098 252.539 58.9018 254.329 57.5475C258.2 54.6069 263.835 55.7926 268.303 53.906C271.636 52.4989 275.845 51.3922 278.94 54.4171Z" fill="#FFD865"/>
<path d="M241.854 404.366C245.335 406.331 253.933 404.85 259.283 403.638C259.798 403.524 260.277 403.285 260.678 402.943C261.08 402.602 261.392 402.167 261.586 401.678C261.781 401.188 261.853 400.659 261.796 400.135C261.738 399.612 261.554 399.11 261.258 398.674L259.806 396.529L259.246 396.445H259.742L265.192 373.115C268.361 362.575 266.597 354.523 265.192 348.21C264.522 345.19 266.101 338.481 267.928 332.305C270.949 333.612 273.933 334.603 276.442 334.882C277.994 335.056 279.706 335.224 281.496 335.356C283.418 340.399 285.087 344.842 285.23 345.406C287.496 354.449 298.586 358.734 298.586 358.734L326.884 390.833C326.884 390.833 325.125 395.391 321.603 396.798C321.603 396.798 312.814 398.906 318.434 401.014C322.189 402.421 330.491 399.602 335.593 397.573C336.078 397.379 336.509 397.07 336.848 396.673C337.187 396.275 337.423 395.801 337.537 395.292C337.651 394.783 337.639 394.254 337.502 393.75C337.365 393.247 337.106 392.784 336.749 392.403L334.959 390.49H334.795L325.991 371.713C324.935 366.443 315.096 351.719 309.091 348.91C305.605 347.277 302.606 339.683 300.699 333.628C303.403 332.699 305.812 331.071 307.681 328.911C314.362 320.843 317.187 325.401 330.179 322.245C346.678 318.24 340.341 306.962 338.403 306.914C329.599 302.888 306.714 281.788 304.359 279.627C304.797 279.406 305.04 279.268 305.04 279.268L304.195 279.474L304.164 279.442C303.772 277.872 303.256 276.336 302.621 274.847C303.702 275.779 304.844 276.638 306.038 277.419C310.132 280.085 315.27 281.84 319.918 280.322L319.807 280.201C320.076 280.133 320.335 280.059 320.62 279.975C317.883 277 316.204 273.209 315.841 269.187C318.104 268.81 320.292 268.071 322.321 267C330.375 263.132 336.174 254.447 335.868 245.451C335.751 242.015 334.864 238.527 335.662 235.186C336.406 232.087 337.156 230.838 337.737 227.708C339.496 218.222 341.255 219.993 339.67 212.878C338.857 209.226 334.531 207.382 332.598 204.178C329.773 199.493 329.683 193.738 328.901 188.32C328.12 182.903 326.176 177.006 321.317 174.482C314.388 170.877 309.577 162.087 302.658 163.135C302.289 163.193 301.919 163.236 301.555 163.272C298.934 161.814 295.944 161.15 292.951 161.359C291.182 161.491 289.439 161.929 287.67 161.918C285.73 161.904 283.831 161.357 282.183 160.337C282.098 160.543 282.029 160.753 281.966 160.964C281.802 160.875 281.639 160.785 281.48 160.685C281.024 161.875 280.843 163.152 280.952 164.421C278.218 165.093 275.758 166.589 273.907 168.706C273.511 165.881 273.278 164.084 273.278 164.084L272.576 129.355C272.576 129.355 280.662 115.654 272.93 115.654C265.198 115.654 265.536 127.932 265.536 127.932L263.423 154.593C262.018 164.079 263.423 170.403 263.423 170.403C267.062 179.999 269.164 194.202 270.014 200.968C259.351 209.021 256.378 216.145 256.494 222.048C256.362 228.113 259.541 232.967 261.316 236.35C261.749 237.172 261.95 238.901 261.966 241.325C261.834 261.351 250.595 322.824 250.595 322.824L250.711 322.872L250.595 323.525L251.181 323.768C250.51 325.876 249.781 327.984 249.01 330.018C245.144 340.189 249.01 347.208 249.01 347.208L252.655 395.486L252.354 395.438C252.354 395.438 249.311 399.876 245.62 400.708C245.636 400.698 236.626 401.415 241.854 404.366ZM292.296 258.473L292.265 258.442C288.929 254.718 287.067 249.909 287.026 244.914C287.093 241.34 287.921 237.821 289.455 234.59C290.601 230.086 291.406 225.502 291.863 220.878C292.054 223.417 292.091 225.965 291.974 228.509C291.552 238.553 289.693 248.808 292.302 258.473H292.296Z" fill="url(#paint0_linear_18_146)"/>
<path d="M288.621 207.55C291.652 212.667 291.103 222.021 286.894 239.128C286.894 239.128 282.082 252.16 291.705 263.132C301.328 274.104 303.387 283.685 303.387 283.685C303.387 283.685 333.597 302.361 337.41 310.772C331.738 298.256 350.36 316.174 328.817 321.401C316.105 324.49 313.353 320.031 306.826 327.915C300.298 335.799 285.521 334.766 276.241 333.744C266.962 332.721 251.155 321.744 251.155 321.744C251.155 321.744 268.678 248.023 264.886 240.819C261.311 234.005 248.451 221.057 273.643 204.288C278.66 200.968 285.526 202.37 288.621 207.55Z" fill="#F0898B"/>
<path d="M288.621 207.55C291.652 212.667 291.103 222.021 286.894 239.128C286.894 239.128 282.082 252.16 291.705 263.132C301.328 274.104 303.387 283.685 303.387 283.685C303.387 283.685 333.792 302.277 337.41 310.772C332.081 298.256 350.36 316.174 328.817 321.401C316.105 324.49 313.353 320.031 306.826 327.915C300.298 335.799 285.521 334.766 276.241 333.744C266.962 332.721 251.155 321.744 251.155 321.744C251.155 321.744 268.678 248.023 264.886 240.819C261.311 234.005 248.451 221.057 273.643 204.288C278.66 200.968 285.526 202.37 288.621 207.55Z" fill="#FFDF9C"/>
<path opacity="0.03" d="M288.621 207.55C291.652 212.667 291.103 222.021 286.894 239.128C286.894 239.128 282.082 252.16 291.705 263.132C301.328 274.104 303.387 283.685 303.387 283.685C303.387 283.685 333.792 302.277 337.41 310.772C332.081 298.256 350.36 316.174 328.817 321.401C316.105 324.49 313.353 320.031 306.826 327.915C300.298 335.799 285.521 334.766 276.241 333.744C266.962 332.721 251.155 321.744 251.155 321.744C251.155 321.744 268.678 248.023 264.886 240.819C261.311 234.005 248.451 221.057 273.643 204.288C278.66 200.968 285.526 202.37 288.621 207.55Z" fill="black"/>
<path d="M297.895 324.848C297.895 324.848 302.363 344.737 308.204 347.477C314.045 350.217 323.668 364.62 324.698 369.763L333.459 388.461H325.537L297.874 357.084C297.874 357.084 287.031 352.868 284.813 344.052C284.47 342.681 275.19 318.677 275.19 318.677L297.895 324.848Z" fill="#FEC2BE"/>
<path d="M272.122 318.677C272.122 318.677 263.872 340.621 265.256 346.797C266.64 352.974 268.351 360.857 265.256 371.144L259.922 393.942L253.056 393.599L249.444 345.775C249.444 345.775 245.662 338.924 249.444 328.974C253.225 319.025 255.95 306.677 255.95 306.677L272.122 318.677Z" fill="#FEC2BE"/>
<path d="M270.405 206.549C270.405 206.549 268.346 185.633 263.539 172.943C263.539 172.943 262.166 166.772 263.539 157.512L265.599 131.453C265.599 131.453 265.256 119.453 272.814 119.453C280.371 119.453 272.47 132.828 272.47 132.828L273.157 166.777C273.157 166.777 277.625 201.411 280.715 205.184L270.405 206.549Z" fill="#FEC2BE"/>
<path opacity="0.05" d="M270.405 206.549C270.405 206.549 268.346 185.633 263.539 172.943C263.539 172.943 262.166 166.772 263.539 157.512L265.599 131.453C265.599 131.453 265.256 119.453 272.814 119.453C280.371 119.453 272.47 132.828 272.47 132.828L273.157 166.777C273.157 166.777 277.625 201.411 280.715 205.184L270.405 206.549Z" fill="black"/>
<path d="M272.122 181.881C272.122 181.881 273.495 198.338 269.37 203.824C269.37 203.824 278.993 198.681 287.237 203.139C287.237 203.139 282.082 189.079 283.799 182.908L272.122 181.881Z" fill="#FEC2BE"/>
<path d="M288.621 203.434C291.652 208.552 293.168 217.906 288.959 235.012C288.959 235.012 282.093 248.044 291.71 259.016C301.328 269.988 303.393 279.569 303.393 279.569C303.393 279.569 328.822 303.231 337.415 306.656C337.415 306.656 341.54 314.198 328.822 317.286C316.105 320.374 313.359 315.915 306.831 323.799C300.303 331.683 285.526 330.65 276.246 329.628C266.967 328.605 250.991 321.913 250.991 321.913C250.991 321.913 265.251 243.918 261.474 236.703C257.899 229.889 248.477 216.941 273.664 200.172C278.66 196.852 285.526 198.254 288.621 203.434Z" fill="#FFDF9C"/>
<path d="M278.306 223.349C284.758 223.349 289.988 218.13 289.988 211.692C289.988 205.254 284.758 200.035 278.306 200.035C271.854 200.035 266.624 205.254 266.624 211.692C266.624 218.13 271.854 223.349 278.306 223.349Z" fill="#FEC2BE"/>
<path opacity="0.1" d="M282.431 216.493L284.834 252.497L276.912 290.905C276.912 290.905 284.126 316.279 276.912 313.876C269.697 311.473 269.354 290.557 269.354 290.557L274.166 250.437C274.166 250.437 268.324 220.261 269.354 214.074C270.384 207.888 282.431 216.493 282.431 216.493Z" fill="black"/>
<path d="M282.431 215.808L284.834 251.812L276.912 290.219C276.912 290.219 284.126 315.594 276.912 313.191C269.697 310.788 269.354 289.872 269.354 289.872L274.166 249.752C274.166 249.752 268.324 219.576 269.354 213.389C270.384 207.202 282.431 215.808 282.431 215.808Z" fill="#FEC2BE"/>
<path opacity="0.03" d="M283.978 193.005C279.114 193.005 274.688 191.619 272.359 187.735C272.328 184.705 272.143 182.529 272.143 182.529L283.825 183.583C283.086 186.218 283.492 188.494 284.353 192.325C284.105 192.331 284.195 193.005 283.978 193.005Z" fill="black"/>
<path d="M283.804 193.522C291.207 193.522 297.208 187.534 297.208 180.147C297.208 172.76 291.207 166.772 283.804 166.772C276.401 166.772 270.4 172.76 270.4 180.147C270.4 187.534 276.401 193.522 283.804 193.522Z" fill="#FEC2BE"/>
<path opacity="0.03" d="M269.201 231.755C269.201 231.755 268.145 236.898 261.469 237.415L269.201 231.755Z" fill="black"/>
<path opacity="0.03" d="M304.766 323.82C311.294 315.915 314.045 320.39 326.757 317.307C339.47 314.224 335.35 306.677 335.35 306.677C326.757 303.247 301.328 279.59 301.328 279.59C301.328 279.59 299.268 269.988 289.645 259.037C280.023 248.086 286.894 235.033 286.894 235.033C291.119 217.932 289.592 208.573 286.556 203.456C285.72 202.053 284.563 200.868 283.18 199.999C281.796 199.129 280.225 198.6 278.597 198.454C280.573 198.246 282.568 198.606 284.346 199.492C286.124 200.378 287.611 201.753 288.631 203.456C291.663 208.573 293.179 217.927 288.969 235.033C288.969 235.033 282.103 248.065 291.721 259.037C301.338 270.009 303.403 279.59 303.403 279.59C303.403 279.59 328.833 303.252 337.426 306.677C337.426 306.677 341.55 314.219 328.833 317.307C316.115 320.395 313.369 315.937 306.841 323.82C302.326 329.275 293.87 330.466 286.012 330.339C293.237 330.223 300.646 328.8 304.766 323.82Z" fill="black"/>
<path opacity="0.1" d="M278.94 195.661C279.373 194.702 280.297 194.08 280.994 193.285C283.26 190.718 282.869 186.871 283.001 183.451C283.135 180.184 283.867 176.969 285.161 173.965C284.351 173.564 283.613 173.029 282.98 172.384C281.882 171.217 281.135 169.766 280.824 168.196C280.513 166.626 280.651 165 281.221 163.504C282.836 164.489 284.69 165.012 286.582 165.017C288.314 165.017 290.02 164.6 291.752 164.49C294.679 164.284 297.603 164.935 300.166 166.361C300.525 166.324 300.884 166.282 301.222 166.224C307.987 165.201 312.688 173.796 319.458 177.317C324.212 179.788 326.129 185.554 326.852 190.845C327.576 196.136 327.687 201.764 330.444 206.343C332.334 209.474 336.565 211.281 337.357 214.849C338.904 221.805 337.188 220.087 335.472 229.347C334.901 232.408 334.167 233.631 333.443 236.656C332.662 239.923 333.528 243.333 333.644 246.669C334.019 257.694 325.014 268.249 314.045 269.635C314.369 273.664 316.043 277.466 318.798 280.428C314.256 281.914 309.234 280.196 305.231 277.587C298.741 273.32 293.999 266.873 291.863 259.417C289.165 249.857 291.024 239.697 291.451 229.774C291.879 219.85 290.311 208.815 282.748 202.37C280.614 200.557 277.804 198.186 278.94 195.661Z" fill="black"/>
<path d="M279.627 195.319C280.06 194.36 280.984 193.738 281.681 192.942C283.947 190.376 283.556 186.529 283.688 183.108C283.822 179.841 284.554 176.627 285.848 173.623C285.037 173.221 284.3 172.687 283.667 172.042C282.569 170.875 281.822 169.424 281.511 167.853C281.2 166.283 281.338 164.658 281.908 163.162C283.52 164.16 285.377 164.696 287.274 164.711C289.006 164.711 290.712 164.295 292.444 164.184C295.362 163.971 298.28 164.608 300.842 166.018C301.201 165.981 301.56 165.939 301.898 165.881C308.663 164.859 313.364 173.454 320.135 176.974C324.888 179.446 326.805 185.211 327.528 190.502C328.252 195.793 328.363 201.421 331.12 206.001C333.011 209.131 337.241 210.939 338.033 214.507C339.58 221.463 337.864 219.745 336.148 229.004C335.577 232.066 334.843 233.289 334.12 236.313C333.338 239.581 334.204 242.99 334.32 246.326C334.695 257.351 325.691 267.907 314.721 269.293C315.031 273.31 316.684 277.107 319.416 280.075C314.874 281.561 309.852 279.843 305.848 277.234C299.348 272.966 294.598 266.514 292.46 259.048C289.761 249.488 291.621 239.328 292.048 229.405C292.476 219.481 290.908 208.446 283.345 202.001C281.301 200.215 278.491 197.843 279.627 195.319Z" fill="#AF637C"/>
<path d="M325.558 388.461C325.558 388.461 323.842 392.919 320.404 394.29C320.404 394.29 311.811 396.345 317.309 398.405C321.006 399.781 329.092 397.025 334.083 395.043C334.553 394.849 334.97 394.545 335.298 394.156C335.625 393.767 335.854 393.305 335.965 392.81C336.076 392.314 336.065 391.799 335.935 391.308C335.804 390.817 335.556 390.365 335.213 389.989L333.465 388.119L325.558 388.461Z" fill="#4C4981"/>
<path d="M252.707 392.914C252.707 392.914 249.734 397.251 246.127 398.073C246.127 398.073 237.318 398.774 242.43 401.657C245.831 403.575 254.239 402.131 259.478 400.946C259.981 400.832 260.448 400.598 260.84 400.264C261.232 399.929 261.536 399.504 261.725 399.026C261.915 398.548 261.985 398.031 261.93 397.52C261.874 397.008 261.694 396.518 261.406 396.092L259.985 393.984L252.707 392.914Z" fill="#4C4981"/>
<path opacity="0.03" d="M304.253 279.416C304.253 279.416 296.331 283.874 287.417 283.532L304.253 279.416Z" fill="black"/>
<path d="M347.381 405.662C346.15 404.519 344.994 403.169 344.635 401.53C344.275 399.892 344.978 397.921 346.552 397.315C348.31 396.64 350.196 397.842 351.622 399.091C353.048 400.339 354.685 401.725 356.549 401.462C355.589 400.593 354.871 399.491 354.465 398.262C354.058 397.034 353.978 395.722 354.231 394.453C354.313 393.929 354.535 393.438 354.875 393.03C355.852 391.976 357.627 392.435 358.794 393.257C362.491 395.892 363.547 400.914 363.574 405.457C363.948 403.818 363.632 402.11 363.642 400.429C363.653 398.748 364.112 396.888 365.533 395.981C366.426 395.504 367.431 395.273 368.443 395.312C370.117 395.249 371.981 395.417 373.122 396.64C374.543 398.158 374.178 400.703 372.937 402.374C371.696 404.044 369.821 405.093 368.094 406.247C366.708 407.072 365.526 408.198 364.635 409.541C364.529 409.729 364.443 409.926 364.376 410.131H353.866C351.512 408.94 349.331 407.437 347.381 405.662Z" fill="#00C9B5"/>
<path d="M443.544 322.93C443.544 322.93 482.8 351.445 403.11 383.244C403.11 383.244 388.993 350.623 409.801 326.819C413.842 322.178 419.448 319.177 425.558 318.384C431.668 317.592 437.857 319.063 442.952 322.519L443.544 322.93Z" fill="#00C9B5"/>
<path d="M443.111 322.361C443.111 322.361 405.312 346.36 403.11 383.239" stroke="#535461" stroke-miterlimit="10"/>
<path d="M402.297 378.975C402.297 378.975 415.326 334.834 399.851 302.345C393.355 288.712 391.2 273.403 394.2 258.605C395.635 251.579 397.712 244.7 400.406 238.052" stroke="#535461" stroke-width="2" stroke-miterlimit="10"/>
<path d="M390.778 217.558C390.778 222.97 400.596 238.638 400.596 238.638C400.596 238.638 410.414 222.949 410.414 217.558C410.354 215 409.294 212.566 407.46 210.778C405.626 208.989 403.163 207.988 400.599 207.988C398.034 207.988 395.571 208.989 393.737 210.778C391.903 212.566 390.843 215 390.783 217.558H390.778Z" fill="#00C9B5"/>
<path d="M374.554 247.523C377.501 252.065 394.285 259.907 394.285 259.907C394.285 259.907 393.978 241.415 391.031 236.872C389.586 234.762 387.371 233.3 384.86 232.796C382.349 232.293 379.741 232.789 377.591 234.178C375.441 235.567 373.92 237.739 373.352 240.231C372.785 242.723 373.216 245.338 374.554 247.517V247.523Z" fill="#00C9B5"/>
<path d="M375.261 298.73C380.104 301.165 398.557 299.484 398.557 299.484C398.557 299.484 388.94 283.674 384.097 281.239C381.78 280.13 379.119 279.972 376.686 280.799C374.253 281.626 372.242 283.371 371.085 285.661C369.927 287.951 369.716 290.602 370.496 293.045C371.276 295.489 372.985 297.53 375.256 298.73H375.261Z" fill="#00C9B5"/>
<path d="M384.541 337.343C388.898 340.558 407.377 342.012 407.377 342.012C407.377 342.012 400.575 324.811 396.218 321.591C395.182 320.814 394.002 320.249 392.747 319.929C391.491 319.609 390.185 319.54 388.902 319.726C387.62 319.912 386.387 320.35 385.275 321.014C384.163 321.678 383.194 322.555 382.423 323.594C381.652 324.634 381.095 325.816 380.785 327.071C380.474 328.326 380.415 329.631 380.612 330.909C380.809 332.187 381.257 333.414 381.932 334.518C382.606 335.622 383.493 336.582 384.541 337.343Z" fill="#00C9B5"/>
<path d="M414.919 260.956C411.032 264.724 392.912 268.629 392.912 268.629C392.912 268.629 397.348 250.674 401.235 246.901C402.16 246.004 403.253 245.298 404.451 244.823C405.649 244.348 406.93 244.113 408.219 244.131C409.508 244.15 410.781 244.422 411.965 244.931C413.149 245.441 414.221 246.178 415.12 247.101C416.018 248.024 416.726 249.114 417.202 250.31C417.678 251.506 417.914 252.783 417.895 254.07C417.876 255.356 417.604 256.627 417.093 257.808C416.583 258.989 415.844 260.059 414.919 260.956Z" fill="#00C9B5"/>
<path d="M425.175 306.25C420.332 308.685 401.879 307.004 401.879 307.004C401.879 307.004 411.497 291.194 416.34 288.76C417.494 288.142 418.761 287.761 420.066 287.639C421.37 287.518 422.686 287.658 423.935 288.051C425.185 288.445 426.343 289.084 427.341 289.931C428.339 290.779 429.156 291.816 429.746 292.984C430.336 294.151 430.686 295.425 430.774 296.729C430.863 298.033 430.69 299.342 430.264 300.579C429.838 301.815 429.168 302.954 428.294 303.928C427.42 304.902 426.36 305.692 425.175 306.25Z" fill="#00C9B5"/>
<path d="M429.11 351.667C424.753 354.881 406.273 356.336 406.273 356.336C406.273 356.336 413.076 339.135 417.433 335.915C419.528 334.394 422.14 333.762 424.7 334.154C427.26 334.547 429.561 335.933 431.102 338.011C432.642 340.089 433.297 342.69 432.924 345.248C432.551 347.806 431.18 350.113 429.11 351.667Z" fill="#00C9B5"/>
<path opacity="0.25" d="M390.778 217.558C390.778 222.97 400.596 238.638 400.596 238.638C400.596 238.638 410.414 222.949 410.414 217.558C410.354 215 409.294 212.566 407.46 210.778C405.626 208.989 403.163 207.988 400.599 207.988C398.034 207.988 395.571 208.989 393.737 210.778C391.903 212.566 390.843 215 390.783 217.558H390.778Z" fill="black"/>
<path opacity="0.25" d="M374.554 247.523C377.501 252.065 394.285 259.907 394.285 259.907C394.285 259.907 393.978 241.415 391.031 236.872C389.586 234.762 387.371 233.3 384.86 232.796C382.349 232.293 379.741 232.789 377.591 234.178C375.441 235.567 373.92 237.739 373.352 240.231C372.785 242.723 373.216 245.338 374.554 247.517V247.523Z" fill="black"/>
<path opacity="0.25" d="M375.261 298.73C380.104 301.165 398.557 299.484 398.557 299.484C398.557 299.484 388.94 283.674 384.097 281.239C381.78 280.13 379.119 279.972 376.686 280.799C374.253 281.626 372.242 283.371 371.085 285.661C369.927 287.951 369.716 290.602 370.496 293.045C371.276 295.489 372.985 297.53 375.256 298.73H375.261Z" fill="black"/>
<path opacity="0.25" d="M384.541 337.343C388.898 340.558 407.377 342.012 407.377 342.012C407.377 342.012 400.575 324.811 396.218 321.591C395.182 320.814 394.002 320.249 392.747 319.929C391.491 319.609 390.185 319.54 388.902 319.726C387.62 319.912 386.387 320.35 385.275 321.014C384.163 321.678 383.194 322.555 382.423 323.594C381.652 324.634 381.095 325.816 380.785 327.071C380.474 328.326 380.415 329.631 380.612 330.909C380.809 332.187 381.257 333.414 381.932 334.518C382.606 335.622 383.493 336.582 384.541 337.343Z" fill="black"/>
<path opacity="0.25" d="M414.919 260.956C411.032 264.724 392.912 268.629 392.912 268.629C392.912 268.629 397.348 250.674 401.235 246.901C402.16 246.004 403.253 245.298 404.451 244.823C405.649 244.348 406.93 244.113 408.219 244.131C409.508 244.15 410.781 244.422 411.965 244.931C413.149 245.441 414.221 246.178 415.12 247.101C416.018 248.024 416.726 249.114 417.202 250.31C417.678 251.506 417.914 252.783 417.895 254.07C417.876 255.356 417.604 256.627 417.093 257.808C416.583 258.989 415.844 260.059 414.919 260.956Z" fill="black"/>
<path opacity="0.25" d="M425.175 306.25C420.332 308.685 401.879 307.004 401.879 307.004C401.879 307.004 411.497 291.194 416.34 288.76C417.494 288.142 418.761 287.761 420.066 287.639C421.37 287.518 422.686 287.658 423.935 288.051C425.185 288.445 426.343 289.084 427.341 289.931C428.339 290.779 429.156 291.816 429.746 292.984C430.336 294.151 430.686 295.425 430.774 296.729C430.863 298.033 430.69 299.342 430.264 300.579C429.838 301.815 429.168 302.954 428.294 303.928C427.42 304.902 426.36 305.692 425.175 306.25Z" fill="black"/>
<path opacity="0.25" d="M429.11 351.667C424.753 354.881 406.273 356.336 406.273 356.336C406.273 356.336 413.076 339.135 417.433 335.915C419.528 334.394 422.14 333.762 424.7 334.154C427.26 334.547 429.561 335.933 431.102 338.011C432.642 340.089 433.297 342.69 432.924 345.248C432.551 347.806 431.18 350.113 429.11 351.667Z" fill="black"/>
</g>
<defs>
<linearGradient id="paint0_linear_18_146" x1="290.754" y1="405.325" x2="290.754" y2="115.669" gradientUnits="userSpaceOnUse">
<stop stop-color="#808080" stop-opacity="0.25"/>
<stop offset="0.54" stop-color="#808080" stop-opacity="0.12"/>
<stop offset="1" stop-color="#808080" stop-opacity="0.1"/>
</linearGradient>
<clipPath id="clip0_18_146">
<rect width="495" height="427" fill="white"/>
</clipPath>
</defs>
</svg>
